<mxfile host="app.diagrams.net" modified="2020-08-13T10:19:53.796Z" agent="5.0 (Macintosh)" etag="XeHD8xTx4IOx7tNc5FFQ" version="13.6.2" type="github">
  <diagram id="O9GCp01wsR26P-MwLVdI" name="Page-1">
    <mxGraphModel dx="1426" dy="808" grid="1" gridSize="10" guides="1" tooltips="1" connect="1" arrows="1" fold="1" page="1" pageScale="1" pageWidth="827" pageHeight="1169" math="0" shadow="0">
      <root>
        <mxCell id="0" />
        <mxCell id="1" parent="0" />
        <mxCell id="n-wgbniwUne2PGcrE3j6-3" value="" style="edgeStyle=orthogonalEdgeStyle;rounded=0;orthogonalLoop=1;jettySize=auto;html=1;exitX=0.25;exitY=1;exitDx=0;exitDy=0;entryX=0.25;entryY=0;entryDx=0;entryDy=0;" edge="1" parent="1" source="n-wgbniwUne2PGcrE3j6-1" target="n-wgbniwUne2PGcrE3j6-2">
          <mxGeometry relative="1" as="geometry" />
        </mxCell>
        <mxCell id="n-wgbniwUne2PGcrE3j6-1" value="Ports - Course" style="rounded=0;whiteSpace=wrap;html=1;" vertex="1" parent="1">
          <mxGeometry x="200" y="220" width="120" height="60" as="geometry" />
        </mxCell>
        <mxCell id="n-wgbniwUne2PGcrE3j6-5" value="" style="edgeStyle=orthogonalEdgeStyle;rounded=0;orthogonalLoop=1;jettySize=auto;html=1;entryX=0;entryY=0.25;entryDx=0;entryDy=0;exitX=1;exitY=0.25;exitDx=0;exitDy=0;" edge="1" parent="1" source="n-wgbniwUne2PGcrE3j6-2" target="n-wgbniwUne2PGcrE3j6-4">
          <mxGeometry relative="1" as="geometry" />
        </mxCell>
        <mxCell id="n-wgbniwUne2PGcrE3j6-7" value="" style="edgeStyle=orthogonalEdgeStyle;rounded=0;orthogonalLoop=1;jettySize=auto;html=1;exitX=0.25;exitY=1;exitDx=0;exitDy=0;entryX=0.25;entryY=0;entryDx=0;entryDy=0;" edge="1" parent="1" source="n-wgbniwUne2PGcrE3j6-2" target="n-wgbniwUne2PGcrE3j6-6">
          <mxGeometry relative="1" as="geometry" />
        </mxCell>
        <mxCell id="n-wgbniwUne2PGcrE3j6-9" style="edgeStyle=orthogonalEdgeStyle;rounded=0;orthogonalLoop=1;jettySize=auto;html=1;entryX=0.75;entryY=1;entryDx=0;entryDy=0;exitX=0.75;exitY=0;exitDx=0;exitDy=0;" edge="1" parent="1" source="n-wgbniwUne2PGcrE3j6-2" target="n-wgbniwUne2PGcrE3j6-1">
          <mxGeometry relative="1" as="geometry" />
        </mxCell>
        <mxCell id="n-wgbniwUne2PGcrE3j6-2" value="Applicaton" style="whiteSpace=wrap;html=1;rounded=0;" vertex="1" parent="1">
          <mxGeometry x="200" y="360" width="120" height="60" as="geometry" />
        </mxCell>
        <mxCell id="n-wgbniwUne2PGcrE3j6-10" style="edgeStyle=orthogonalEdgeStyle;rounded=0;orthogonalLoop=1;jettySize=auto;html=1;exitX=0;exitY=0.75;exitDx=0;exitDy=0;entryX=1;entryY=0.75;entryDx=0;entryDy=0;" edge="1" parent="1" source="n-wgbniwUne2PGcrE3j6-4" target="n-wgbniwUne2PGcrE3j6-2">
          <mxGeometry relative="1" as="geometry" />
        </mxCell>
        <mxCell id="n-wgbniwUne2PGcrE3j6-4" value="Domain" style="whiteSpace=wrap;html=1;rounded=0;" vertex="1" parent="1">
          <mxGeometry x="400" y="360" width="120" height="60" as="geometry" />
        </mxCell>
        <mxCell id="n-wgbniwUne2PGcrE3j6-8" style="edgeStyle=orthogonalEdgeStyle;rounded=0;orthogonalLoop=1;jettySize=auto;html=1;entryX=0.75;entryY=1;entryDx=0;entryDy=0;exitX=0.75;exitY=0;exitDx=0;exitDy=0;" edge="1" parent="1" source="n-wgbniwUne2PGcrE3j6-6" target="n-wgbniwUne2PGcrE3j6-2">
          <mxGeometry relative="1" as="geometry" />
        </mxCell>
        <mxCell id="n-wgbniwUne2PGcrE3j6-6" value="Adpater" style="whiteSpace=wrap;html=1;rounded=0;" vertex="1" parent="1">
          <mxGeometry x="200" y="500" width="120" height="60" as="geometry" />
        </mxCell>
      </root>
    </mxGraphModel>
  </diagram>
</mxfile>
